# xmcd
# 
# Track frame offsets:
#     150
#     31989
#     57831
#     96187
#     131604
#     158549
#     187379
#     220956
#     249390
#     271145
# 
# Disc length: 3975
# 
# Revision: 0
# Processed by: cddbd v1.5.2PL0 Copyright (c) Steve Scherf et al.
# Submitted via: BonkEnc v1.0
# 
DISCID=8a0f850a
DTITLE=St Germain - Tourist
DYEAR=0
DGENRE=
TTITLE0=Rose Rouge
TTITLE1=Montego Bay Spleen
TTITLE2=So Flute
TTITLE3=Land Of ...
TTITLE4=Latin Note
TTITLE5=Sure Thing
TTITLE6=Pont Des Arts
TTITLE7=La Goutte D'or
TTITLE8=What You Think About
TTITLE9=St Germain
EXTD=
EXTT0=
EXTT1=
EXTT2=
EXTT3=
EXTT4=
EXTT5=
EXTT6=
EXTT7=
EXTT8=
EXTT9=
PLAYORDER=
